<svg width="200" height="50" viewBox="0 0 200 50" fill="none" xmlns="http://www.w3.org/2000/svg">
  <!-- Logo Icon -->
  <path fill-rule="evenodd" clip-rule="evenodd" d="M20 1.90735e-06C8.95431 1.90735e-06 0 8.95431 0 20V30C0 41.0457 8.9543 50 20 50H30C41.0457 50 50 41.0457 50 30V20C50 8.95431 41.0457 1.90735e-06 30 1.90735e-06H20ZM33 12.4698L19.8375 25.2607C17.824 23.3025 17.824 20.1385 19.8375 18.1804L25.7195 12.4602C27.733 10.5117 30.9865 10.5117 33 12.4698ZM19.5102 38.881L29.0225 29.6304C31.0361 27.6722 31.0361 24.5083 29.0225 22.5501L19.5102 31.8008C17.4966 33.7589 17.4966 36.9229 19.5102 38.881ZM31.3336 26.0902C31.3336 25.8008 31.3039 25.5115 31.2642 25.2317C32.0676 27.0645 31.7006 29.2542 30.1731 30.7493L20.6608 40C20.4624 39.8071 20.2839 39.5949 20.1252 39.3826L29.5978 30.1706C30.7186 29.0805 31.3336 27.6336 31.3336 26.0902ZM28.1595 22.2993L23.944 26.4086L20.7104 25.5018L24.9755 21.3636L28.1595 22.2993Z" fill="#1967D2"/>
  
  <!-- Campus Connect Text -->
  <path d="M60.5 32.5C63.5 32.5 65.9 31.3 67.3 29.1L64.9 27.5C64 28.9 62.4 29.7 60.6 29.7C57.7 29.7 55.6 27.6 55.6 24.5C55.6 21.4 57.7 19.3 60.6 19.3C62.4 19.3 64 20.1 64.9 21.5L67.3 19.9C65.9 17.7 63.5 16.5 60.5 16.5C56 16.5 52.5 19.8 52.5 24.5C52.5 29.2 56 32.5 60.5 32.5Z" fill="#202124"/>
  <path d="M74.1 32.5C77.3 32.5 79.7 30.1 79.7 26.9C79.7 23.7 77.3 21.3 74.1 21.3C70.9 21.3 68.5 23.7 68.5 26.9C68.5 30.1 70.9 32.5 74.1 32.5ZM74.1 29.9C72.5 29.9 71.3 28.6 71.3 26.9C71.3 25.2 72.5 23.9 74.1 23.9C75.7 23.9 76.9 25.2 76.9 26.9C76.9 28.6 75.7 29.9 74.1 29.9Z" fill="#202124"/>
  <path d="M89.1 21.5V32.3H86.3V31C85.5 32 84.2 32.5 82.7 32.5C80.1 32.5 78.3 30.8 78.3 28.4C78.3 26 80.1 24.3 82.7 24.3C84.1 24.3 85.3 24.8 86.1 25.7V21.5H89.1ZM86.3 28.4C86.3 27.1 85.3 26.2 83.9 26.2C82.5 26.2 81.5 27.1 81.5 28.4C81.5 29.7 82.5 30.6 83.9 30.6C85.3 30.6 86.3 29.7 86.3 28.4Z" fill="#202124"/>
  <path d="M98.1 21.5V24.1H97.5C95.5 24.1 94.3 25.2 94.3 27.3V32.3H91.3V21.5H94.3V23.3C94.9 22.1 96.1 21.5 98.1 21.5Z" fill="#202124"/>
  <path d="M106.3 32.5C109.9 32.5 112.5 29.9 112.5 26.3C112.5 22.7 109.9 20.1 106.3 20.1C102.7 20.1 100.1 22.7 100.1 26.3C100.1 29.9 102.7 32.5 106.3 32.5ZM106.3 29.9C104.3 29.9 102.7 28.3 102.7 26.3C102.7 24.3 104.3 22.7 106.3 22.7C108.3 22.7 109.9 24.3 109.9 26.3C109.9 28.3 108.3 29.9 106.3 29.9Z" fill="#202124"/>
  <path d="M121.3 32.3L118.1 27.9L116.7 29.3V32.3H113.7V16.7H116.7V26.5L120.9 21.5H124.5L120.1 26.7L124.9 32.3H121.3Z" fill="#202124"/>
  <path d="M132.5 32.5C135.7 32.5 138.1 30.1 138.1 26.9C138.1 23.7 135.7 21.3 132.5 21.3C129.3 21.3 126.9 23.7 126.9 26.9C126.9 30.1 129.3 32.5 132.5 32.5ZM132.5 29.9C130.9 29.9 129.7 28.6 129.7 26.9C129.7 25.2 130.9 23.9 132.5 23.9C134.1 23.9 135.3 25.2 135.3 26.9C135.3 28.6 134.1 29.9 132.5 29.9Z" fill="#202124"/>
  <path d="M147.5 21.5V24.1H146.9C144.9 24.1 143.7 25.2 143.7 27.3V32.3H140.7V21.5H143.7V23.3C144.3 22.1 145.5 21.5 147.5 21.5Z" fill="#202124"/>
  <path d="M155.7 21.5V24.1H155.1C153.1 24.1 151.9 25.2 151.9 27.3V32.3H148.9V21.5H151.9V23.3C152.5 22.1 153.7 21.5 155.7 21.5Z" fill="#202124"/>
  <path d="M163.9 32.5C167.1 32.5 169.5 30.1 169.5 26.9C169.5 23.7 167.1 21.3 163.9 21.3C160.7 21.3 158.3 23.7 158.3 26.9C158.3 30.1 160.7 32.5 163.9 32.5ZM163.9 29.9C162.3 29.9 161.1 28.6 161.1 26.9C161.1 25.2 162.3 23.9 163.9 23.9C165.5 23.9 166.7 25.2 166.7 26.9C166.7 28.6 165.5 29.9 163.9 29.9Z" fill="#202124"/>
  <path d="M178.9 21.5V32.3H176.1V31C175.3 32 174 32.5 172.5 32.5C169.9 32.5 168.1 30.8 168.1 28.4C168.1 26 169.9 24.3 172.5 24.3C173.9 24.3 175.1 24.8 175.9 25.7V21.5H178.9ZM176.1 28.4C176.1 27.1 175.1 26.2 173.7 26.2C172.3 26.2 171.3 27.1 171.3 28.4C171.3 29.7 172.3 30.6 173.7 30.6C175.1 30.6 176.1 29.7 176.1 28.4Z" fill="#202124"/>
  <path d="M188.3 27.7H180.9C181.2 29.1 182.4 30 184 30C185.2 30 186.2 29.5 186.8 28.7L188.6 30.1C187.6 31.6 186 32.5 184 32.5C180.6 32.5 178 30.1 178 26.9C178 23.7 180.5 21.3 183.7 21.3C186.9 21.3 189.3 23.7 189.3 26.9C189.3 27.2 189.3 27.4 189.2 27.7H188.3ZM180.9 25.7H186.5C186.2 24.3 185 23.4 183.7 23.4C182.4 23.4 181.2 24.3 180.9 25.7Z" fill="#202124"/>
  <path d="M198.1 21.5V24.1H197.5C195.5 24.1 194.3 25.2 194.3 27.3V32.3H191.3V21.5H194.3V23.3C194.9 22.1 196.1 21.5 198.1 21.5Z" fill="#202124"/>
</svg>
